<?xml version="1.0" encoding="UTF-8" standalone="no"?><svg xmlns="http://www.w3.org/2000/svg" xmlns:cc="http://creativecommons.org/ns#" xmlns:dc="http://purl.org/dc/elements/1.1/" xmlns:rdf="http://www.w3.org/1999/02/22-rdf-syntax-ns#" width="1024" height="103.76" viewBox="0 0 270.933 27.454"><path d="M132.07 7.251v.86l1.422.144c.213.019.404.039.57.058.166 0 .307.018.425.057.119.019.215.057.286.114a.624.624 0 0 1 .213.202c.047.076.095.181.142.315.048.134.083.287.107.459.023.191.035.402.035.631.024.21.035.44.035.689v13.656c0 .19-.023.372-.07.544a1.701 1.701 0 0 1-.143.488 1.337 1.337 0 0 1-.284.402 1.05 1.05 0 0 1-.39.2l-1.104.46v.66h.427a.476.476 0 0 1 .178-.029h1.03c.166-.02.333-.029.498-.029h.996a.813.813 0 0 1 .213-.029h3.449c.142 0 .284.01.426.03h.356c.142.018.272.028.39.028h.89c.07 0 .141.01.212.029h.96c.712 0 1.375-.02 1.991-.058.64-.019 1.244-.067 1.813-.143.545-.096 1.078-.201 1.6-.316a14.877 14.877 0 0 0 1.6-.43c1.066-.364 2.05-.86 2.95-1.492a11.75 11.75 0 0 0 2.49-2.381 9.656 9.656 0 0 0 1.634-2.955c.38-1.071.569-2.19.569-3.357 0-1.358-.297-2.572-.89-3.643-.568-1.09-1.433-2.018-2.594-2.783-1.162-.784-2.477-1.368-3.946-1.75-1.446-.383-3.045-.574-4.799-.574h-.925a.813.813 0 0 1-.213.029h-1.138l-1.03.058h-5.51c-.213 0-.439-.01-.676-.03h-1.173a.813.813 0 0 1-.213-.028h-2.24a5.87 5.87 0 0 1-.57-.086zm9.35 1.205h1.315c1.612 0 3.093.134 4.444.401 1.351.25 2.57.632 3.661 1.149 1.114.516 1.944 1.347 2.489 2.495.569 1.128.853 2.583.853 4.361 0 .976-.118 1.883-.355 2.725a8.39 8.39 0 0 1-.995 2.324 7.258 7.258 0 0 1-1.778 1.893c-.711.536-1.552.986-2.524 1.35-.071.018-.143.047-.214.085-.071.019-.13.038-.178.057l-.213.058-.213.057-.426.115-.356.115c-.379.076-.746.143-1.102.2-.355.039-.71.067-1.066.086l-1.032.058h-2.346c-.142 0-.285-.01-.427-.029h-.64c-.213-.019-.413-.038-.603-.058a22.55 22.55 0 0 1-.57-.056 3.08 3.08 0 0 1-.462-.144V8.686c.143-.038.297-.058.462-.058.166-.019.357-.038.57-.057.19-.019.39-.029.604-.029l.64-.058h.213c.071 0 .155-.008.25-.028zm-27.23 15.188v-12.8q0-.371-.036-.685 0-.342-.035-.627-.036-.257-.106-.456-.07-.2-.141-.314-.07-.114-.212-.2-.106-.085-.282-.113-.177-.057-.424-.057-.247-.03-.564-.058l-1.694-.142v-.855q.247.057.494.085h1.482l.988.057h6.704l.847-.057h2.506q.247 0 .458-.029h2.012q.282.029.564.029h.6q.6 0 1.13.028.529 0 1.058.03l-.212.683q-.07.342-.14.713l-.071.4q0 .17-.036.341 0 .2-.035.4v.37l-.07.4v1.025l-1.235-.057V9.902q0-.114-.036-.2 0-.113-.035-.228-.035-.113-.106-.17-.035-.086-.141-.115-.459-.142-.953-.228-.494-.114-1.058-.17-.283-.03-.565-.03l-.565-.056q-.317-.029-.6-.029l-.564-.057h-.353q-.176 0-.318-.029h-2.434q-.106.029-.247.029h-.247q-.247 0-.494.028-.247 0-.494.029l-.283.057h-.211l-.283.057q-.106 0-.211.029v7.555q.423.057.882.085.458.029.952.029.495.028 1.06.028h1.199q.811 0 1.447-.028.635-.029 1.094-.057.458-.058.74-.086.318-.057.46-.142.07-.058.105-.114.036-.058.07-.143.036-.085.036-.2.036-.142.07-.285l.177-1.54h1.059v.343q-.036.085-.036.171v.684l-.07.57v2.395q0 .114.035.257v.798q0 .114.035.257v.684q0 .057.036.114v.256l-1.059-.057-.176-1.682q-.035-.114-.07-.2 0-.113-.036-.199-.035-.086-.07-.143-.036-.085-.107-.113-.14-.086-.458-.143-.283-.085-.741-.114-.46-.057-1.094-.057-.635-.029-1.447-.029h-1.2q-.318.029-.6.029h-.494q-.494 0-.953.029-.458 0-.846.028v7.926l.211.114q.141.028.283.028l.211.058h.283l.494.057q.247.028.494.028h2.717q.917 0 1.764-.028.882-.057 1.659-.086.811-.057 1.27-.114.494-.057.706-.142.176-.086.353-.342.211-.257.352-.685.177-.427.283-.969.14-.57.247-1.197l1.235-.057q-.106.37-.177.74-.07.343-.14.742l-.071.4q0 .17-.036.341l-.07.4v.37q0 .114-.035.228v.2q-.036.114-.036.228v1.026h-1.129q-.106 0-.247.029h-1.023q-.212 0-.46.028h-1.552q-.247 0-.494.029h-3.352q-.176-.029-.353-.029h-1.623l-1.164-.057h-5.046l-.565.057h-.953q-.07 0-.14.029h-.318v-.856l1.27-.085q.318.029.565 0 .247-.057.423-.085.177-.057.282-.114.142-.057.212-.171.07-.114.141-.285.07-.2.106-.485.035-.285.035-.627.036-.342.036-.741v-.058zm-16.347-.11V10.791q-.035-.17-.035-.34v-.37l-.07-.68q0-.34-.036-.653l-5.492-.057q-.39.057-.673.114-.248.057-.39.17-.141.114-.248.284-.07.17-.106.426l-.142 2.185h-1.098v-1.107l-.07-.851q0-.426-.036-.852l-.071-.851q0-.426-.07-.851h.956q.248.028.46.028h2.41q.495.028.956.057h2.87l5.137-.057q.496.057.956.057h1.913l.957-.057h2.374q.248 0 .496-.028h.956q-.035.425-.106.851l-.071.851-.07.852v2.015l-1.1-.057-.14-2.242q-.036-.198-.107-.369-.071-.17-.213-.284-.141-.113-.425-.17-.283-.056-.673-.056l-5.491-.057-.071.71q-.036.34-.036.68-.035.341-.035.738v13.51q.035.34.07.624.036.284.072.482.07.17.177.284.07.114.212.199l.284.113q.177.029.425.086.248.028.567.028l1.7.028v.852l-1.346-.057h-1.31q-.638-.028-1.276-.028h-3.189q-.212 0-.425.028h-1.878q-.46.029-.956.057v-.852l1.7-.085q.32.029.567 0 .248-.028.425-.056.178-.057.284-.114.142-.085.212-.198.071-.114.142-.284.07-.199.106-.483.036-.284.036-.624.035-.34.035-.738v-.057zM78.09 7.33v.855l1.65.142c.206.019.389.038.549.057.16 0 .298.019.412.057a.57.57 0 0 1 .275.114c.092.057.16.123.206.199.046.076.091.18.137.313.046.132.08.285.103.455.023.19.035.398.035.626.023.209.034.436.034.683v12.834c0 .265-.011.512-.034.74 0 .227-.011.436-.035.626-.022.19-.057.35-.103.484a2 2 0 0 1-.137.283.609.609 0 0 1-.206.2c-.068.038-.16.076-.275.114a8.974 8.974 0 0 1-.412.057c-.16.02-.343.02-.55 0l-.447.023-.424-.084a1.815 1.815 0 0 1-.542-.199 1.672 1.672 0 0 1-.434-.425l-8.196-8.346h.037c.024 0 .047-.01.071-.028.867-.133 1.698-.341 2.492-.625a12.877 12.877 0 0 0 2.275-1.136c.722-.454 1.264-.993 1.625-1.618a4.065 4.065 0 0 0 .542-2.072v-.142c-.025-.019-.037-.038-.037-.057v-.369a3.144 3.144 0 0 0-.542-1.306 5.284 5.284 0 0 0-1.155-1.22c-.505-.379-1.191-.663-2.058-.852-.867-.208-1.926-.313-3.178-.313h-.83a1.497 1.497 0 0 1-.289.03h-1.3l-1.083.055h-6.32c-.312-.019-.637-.037-.974-.056h-1.516a3.302 3.302 0 0 1-.47-.086v.853l1.48.142c.217.019.41.037.578.056.168 0 .313.019.433.057.12.019.217.057.29.114a.625.625 0 0 1 .215.199c.049.075.097.179.145.311.048.133.084.284.108.454.024.19.037.398.037.625.024.208.036.436.036.682v12.803c0 .265-.012.511-.036.738 0 .227-.013.435-.037.624-.024.19-.06.35-.108.483a1.954 1.954 0 0 1-.145.284.625.625 0 0 1-.216.199 1.797 1.797 0 0 1-.289.114c-.12.018-.265.038-.433.056-.169.02-.36.02-.578 0l-1.733.086v.851l.975-.057h1.913c.145-.019.29-.028.434-.028h3.25c.433 0 .866.01 1.3.028h1.336l1.372.057v-.851l-1.733-.03c-.217 0-.41-.009-.578-.027a6.993 6.993 0 0 0-.433-.085l-.289-.114a.63.63 0 0 1-.217-.2.933.933 0 0 1-.18-.283A9.29 9.29 0 0 1 63.81 25a30.09 30.09 0 0 1-.073-.624V8.818c.265-.038.518-.075.758-.113.265-.057.542-.095.83-.114.29-.038.603-.066.94-.085.361-.019.746-.028 1.155-.028h.217a8.975 8.975 0 0 1 1.95.255 8.579 8.579 0 0 1 1.805.597c.578.284 1.011.68 1.3 1.191.289.511.434 1.136.434 1.874 0 .53-.12 1.013-.362 1.449-.216.435-.566.832-1.047 1.191-.458.36-.962.653-1.516.88a8.72 8.72 0 0 1-1.77.454l-.216.057h-.326a.338.338 0 0 1-.108.03h-.072l-.361.055H65.47a1.025 1.025 0 0 1-.218-.085l-.216.398.145.17.216.171a.216.216 0 0 1 .108.085c.024.038.06.066.109.085l.072.114a.217.217 0 0 1 .108.085c.096.076.194.16.29.255.096.076.192.161.289.256.096.076.18.161.252.256l.29.227 6.643 7.068a.353.353 0 0 1 .108.142.47.47 0 0 1 .108.114c.049.038.097.085.145.142l.144.113c0 .02.013.038.037.057l.071.057v.057h.073v.056c.024 0 .048.01.072.03a.334.334 0 0 1 .073.084c.024.038.06.066.108.085l.072.114a.216.216 0 0 1 .108.085c.049.076.097.142.145.2.072.037.144.084.216.141h.217a.12.12 0 0 1 .072-.029h.65c1.23 0 2.191.005 3.04.006h1.82c.137-.019.274-.028.412-.028h3.091c.413 0 .824.01 1.236.028h1.272l1.304.057v-.853l-1.648-.029c-.206 0-.389-.009-.55-.028a6.359 6.359 0 0 0-.412-.085l-.275-.114a.61.61 0 0 1-.205-.2.939.939 0 0 1-.172-.284 9.908 9.908 0 0 1-.069-.484c-.023-.19-.045-.399-.068-.627V10.147a12.478 12.478 0 0 1 .137-1.081.896.896 0 0 1 .172-.313.608.608 0 0 1 .205-.199.85.85 0 0 1 .275-.114.45.45 0 0 1 .172-.029c.07-.019.15-.037.24-.057h.241c.115-.019.218-.047.31-.085l1.647-.085v-.797l-1.304.057h-1.272c-.412.019-.823.029-1.236.029H81.25c-.137 0-.275-.01-.412-.03h-.894c-.297 0-.606-.008-.926-.027-.298-.02-.608-.048-.928-.086zM52.981 10.83v13.573q.035.341.07.626.033.285.068.484.068.17.171.284.07.114.207.2l.274.113q.172.029.413.086.24.028.55.028l1.648.028v.854l-1.305-.057h-1.271q-.619-.028-1.237-.028h-3.091q-.206 0-.412.028h-1.82q-.447.029-.928.057v-.854l1.649-.085q.309.028.55 0t.411-.057q.172-.057.275-.114.138-.085.206-.199.069-.114.138-.284.068-.2.103-.484.034-.285.034-.626.034-.342.034-.74V10.83q0-.37-.034-.683 0-.341-.034-.626-.035-.256-.103-.455-.069-.2-.138-.313-.068-.114-.206-.2-.103-.085-.275-.113-.171-.057-.412-.057-.24-.029-.55-.057l-1.648-.143V7.33q.48.057.927.085.481.029.928.029h.893q.206.028.412.028h3.091q.618 0 1.237-.028h1.27l1.306-.057v.796l-1.649.086q-.137.057-.309.085h-.24q-.138.028-.24.057-.104 0-.173.028-.137.029-.274.114-.138.086-.206.2-.103.113-.172.312-.035.2-.069.456-.034.284-.069.626v.74-.057zM31.517 9.094v15.482q.036.338.072.62.036.281.072.478.072.169.179.282.072.112.215.197l.287.112q.179.028.43.085.25.028.573.028l1.72.028v.844l-1.362-.056h-1.326q-.645-.028-1.29-.028h-3.224q-.215 0-.43.028h-1.899q-.466.028-.967.056v-.844l1.72-.085q.322.028.573 0t.43-.056q.179-.056.286-.112.144-.085.215-.197.072-.113.144-.282.071-.197.107-.479.036-.281.036-.619.036-.338.036-.732V11.148q0-.31-.036-.619 0-.338-.072-.62-.036-.28-.107-.45-.072-.197-.144-.31-.107-.112-.25-.196-.108-.085-.287-.141-.143-.056-.43-.085-.25-.028-.573-.056l-1.613-.14v-.845q.287.056.574.084h1.684l1.074.057h6.199q.537-.028 1.039-.057h1.218q.143 0 .286-.028h1.254q.072.028.108.028h.107q1.183.057 2.293.338 1.111.282 2.114.788 1.003.507 1.505 1.295.502.788.502 1.858 0 1.323-.645 2.42-.645 1.099-1.9 1.943-1.253.845-2.758 1.267-1.505.422-3.296.422h-.538q-.25 0-.537-.028-.25-.028-.537-.056-.251-.057-.538-.085l-.358-1.07q.286.113.573.17.323.056.61.112l.572.056h.61q1.074 0 1.97-.281.931-.31 1.684-.9.752-.592 1.11-1.352.395-.76.395-1.66 0-1.099-.394-1.887-.395-.788-1.183-1.295-.788-.507-1.863-.76-1.039-.253-2.364-.253-.61 0-1.147.028-.501.028-.931.084-.43.028-.824.113-.359.056-.753.112v-.056zm-11.626-2.35h-1.505l-.282-2.124-.094-.298q0-.187-.094-.336-.047-.186-.141-.298-.095-.149-.236-.298l-.282-.224q-.14-.111-.33-.223-.187-.112-.422-.224-.188-.111-.47-.26-.424-.187-.894-.336-.47-.149-1.035-.26-.282-.075-.565-.112-.282-.038-.517-.075-.282 0-.565-.037t-.564-.037h-.141q-.047 0-.094-.037h-.988q-.094.037-.141.037h-.564q-1.13.111-2.164.521-1.035.373-1.976 1.044-.94.67-1.41 1.64-.471.968-.471 2.197 0 .932.376 1.714.424.783 1.27 1.342.847.596 2.352 1.006 1.552.372 3.763.559 2.493.223 4.468.633 1.976.41 3.434 1.043 1.458.597 2.164 1.714.752 1.118.752 2.72 0 2.348-1.082 4.099-1.081 1.714-3.198 2.869-2.164 1.155-4.515 1.751t-4.892.634H8.32q-.987 0-1.928-.075-.894-.074-1.835-.26-.47-.075-.893-.15l-.753-.149q-.423-.111-.752-.149l-.659-.148q-.094-.038-.188-.038l-.188-.074H.936q-.047-.037-.141-.075-.141-.074-.282-.111-.142-.075-.236-.112.047-.186.047-.373l.095-.372v-.15q0-.111.046-.223v-.149q.047-.112.047-.186v-.745l.095-.745v-2.758l1.505-.074.376 2.496q.094.634.706 1.193.658.521 1.834.968 1.176.447 2.446.67 1.27.225 2.681.225 1.6 0 3.01-.373 1.458-.373 2.776-1.118 1.317-.745 1.975-1.788.659-1.08.659-2.46 0-1.304-.612-2.235-.564-.932-1.74-1.416-1.176-.522-2.681-.857-1.458-.335-3.246-.484-2.775-.261-4.75-.746-1.976-.521-3.199-1.23-1.176-.744-1.787-1.825-.565-1.118-.565-2.571 0-1.937.8-3.39.8-1.491 2.399-2.497Q4.793 1.528 6.534.932 8.32.298 10.248.075h.188q.141 0 .235-.037h.659q.14 0 .282-.037h.423q.988 0 1.882.074.94.075 1.787.26.847.15 1.6.336.752.15 1.41.336l.47.148q.283.075.471.15l.188.074.282.074.188.075q.142 0 .236.037-.141.485-.236.932-.047.447-.14.894-.048.447-.142.894l-.094.82v.41q-.047.111-.047.223v1.08-.074z"/><path d="M235.98 7.135l-1.15.057-.288.517-.215.518-.287.518a5.162 5.162 0 0 1-.252.518l-.143.287-.143.287a1.914 1.914 0 0 0-.18.288l-.144.287a6.97 6.97 0 0 1-.323.576 6.946 6.946 0 0 1-.324.574l-.287.46-.215.461-.287.46-.217.402-6.393 11.703a2.176 2.176 0 0 1-.36.518c-.12.153-.263.297-.43.43-.168.135-.347.24-.539.317a1.309 1.309 0 0 1-.61.087l-1.33.086v.863h.359a.384.384 0 0 1 .143-.03h.862c.216-.018.432-.038.647-.057h3.915l.719.058h.97a.83.83 0 0 1 .215.029h.431v-.863l-1.329-.028a34.45 34.45 0 0 1-.755-.058 2.771 2.771 0 0 1-.538-.144.573.573 0 0 1-.323-.201.742.742 0 0 1-.108-.402c0-.058.012-.135.036-.23.024-.116.06-.24.108-.375.048-.153.108-.306.18-.46l.215-.46V24.1c0-.019.012-.037.036-.057.024-.019.036-.038.036-.057v-.087a.341.341 0 0 1 .071-.086l.073-.173a.684.684 0 0 1 .107-.172.968.968 0 0 0 .073-.144l.07-.172c.025-.058.05-.106.073-.144.024-.058.048-.105.071-.144 0-.038.013-.076.037-.115a.968.968 0 0 0 .072-.143l1.006-1.927h10.346l1.651 3.365v.028h.036v.115c.024.02.048.03.072.03v.085h.036v.029l.216.46c.072.134.143.278.215.432.048.134.084.258.107.373a.643.643 0 0 1 .073.288c0 .077-.048.153-.144.23a.67.67 0 0 1-.323.172c-.144.058-.3.096-.468.115-.167.02-.346.02-.538 0l-1.688.087v.863h.466c.096-.02.18-.03.253-.03h1.113l.79-.057h4.562l.79.058h.97a.83.83 0 0 1 .215.029h.395v-.863l-1.22-.03a1.803 1.803 0 0 1-.468-.114 3.367 3.367 0 0 1-.36-.201 3.925 3.925 0 0 0-.322-.288 6.325 6.325 0 0 1-.287-.374 1.858 1.858 0 0 1-.144-.201l-.143-.23-.144-.23a3.153 3.153 0 0 0-.144-.259 3.095 3.095 0 0 0-.143-.26 3.066 3.066 0 0 0-.144-.257l-.072-.115-.072-.173a37.83 37.83 0 0 1-.072-.116l-.071-.171zm-1.473 3.825l4.526 8.568h-9.088zm15.513-6.377l6.892 9.85 4.964-6.151q.722-.83 1.397-1.698t1.301-1.774q.675-.906 1.253-1.812l1.253-1.811 3.856-.076v.566q-.482.491-1.012.982-.482.49-1.012 1.019-.53.528-1.109 1.094-.53.528-1.06 1.094l-.289.302q-.145.151-.24.265-.146.15-.29.301l-.29.302q-.288.265-.578.566-.24.265-.481.567-.868.98-1.687 1.962-.82.943-1.542 1.85-.771.943-1.35 1.735-.53.793-.915 1.434-.193.378-.338.755-.144.34-.24.68-.049.377-.097.716v6.53q.048.452.096.83.049.377.097.641.096.227.24.378.097.15.29.264l.385.15q.241.038.578.114.338.038.772.038l2.313.037v1.133l-1.832-.076h-1.783q-.867-.038-1.735-.038h-4.337q-.289 0-.578.038h-2.554q-.627.038-1.302.076v-1.133l2.314-.113q.433.038.77 0 .338-.038.579-.075.241-.076.386-.151.192-.113.289-.264.096-.151.193-.378.096-.264.144-.641.048-.378.048-.83.049-.453.049-.982v-5.434q0-.151-.049-.34 0-.226-.048-.415-.048-.189-.144-.34-.097-.188-.193-.34l-5.976-8.226q-.916-1.208-1.831-2.114-.916-.943-1.735-1.51-.868-.566-1.542-.867-.627-.302-1.06-.34l-1.398-.189V1.64l5.542-.906V.81h.048q.048 0 .096-.038h.097q.24.038.482.113.289.076.482.226.24.151.433.34.241.151.434.34.048.038.096.113.048.038.096.113.049.038.049.076h.096v.075q.048 0 .096.038.048.037.048.075.049 0 .097.038v.075q.048 0 .096.038v.076q.048.037.096.037.048.038.048.076l.096.075.193.227q.096.113.241.226.097.151.193.264l.193.227q.096.113.193.264.096.113.24.227l.193.301.193.227v-.076zm-36.4 17.031l-4.427-9.61-6.163 12.53q-.177.397-.354.766-.142.369-.32.737-.14.369-.318.737-.142.369-.283.68h-1.771l-.071-.226q-.036-.085-.036-.199-.035-.085-.07-.198l-.071-.227q-.036-.227-.107-.425-.035-.227-.106-.425-.035-.142-.106-.284-.036-.142-.106-.283l-.071-.284q-.036-.17-.071-.312l-4.215-14.657q-.142-.397-.319-.68-.177-.284-.425-.397-.248-.142-.496-.199-.247-.056-.53-.085l-.993-.141v-.85q.178.056.355.084h1.133l.744.057h4.463l.744-.057h.92q.107 0 .213-.028h.354v.794l-1.487.085q-.284.056-.532.113-.248.057-.425.142-.177.085-.283.283-.07.199-.07.51v.227q0 .085.035.199 0 .113.035.227.036.085.07.226l3.507 12.588h.071l4.357-8.845.141-.227.142-.283.142-.284.141-.283q.319-.68.638-1.39l.708-1.417q.319-.737.638-1.446.318-.737.637-1.446l1.134-.056q.07.255.106.482.07.226.177.453.07.227.177.454l.213.453v.085q.035.057.07.085v.114q.036.028.071.085l.071.17.07.17.072.17.07.113q0 .085.036.17l.07.114q.036.056.071.142l.071.113q0 .057.036.142l.07.113 5.49 12.248h.071l4.64-13.779v.029q0-.029.036-.057v-.198q0-.17-.107-.284-.106-.113-.319-.17-.212-.056-.53-.113-.284-.057-.71-.085l-1.416-.142v-.85l.142.056h.177q.071.028.142.028t.141 0h.638l.567.057h3.47q.142 0 .32-.028h.283q.177-.029.319-.029h.743q.107 0 .177-.028h.32v.794l-1.134.085q-.283.056-.496.142-.212.056-.39.17-.141.113-.283.255-.106.142-.177.312l-5.42 15.196q-.035.113-.07.198-.036.085-.036.17l-.07.17-.071.17-.071.17q0 .085-.036.142l-.07.17q0 .085-.036.17-.07.17-.142.369-.07.17-.141.368-.036.199-.107.397-.035.17-.106.369h-1.77l-.213-.51q-.107-.256-.178-.511-.106-.255-.212-.482-.107-.255-.213-.482l-.212-.454q-.107-.226-.177-.482l-.213-.453-.212-.454q-.036-.113-.107-.227-.07-.113-.106-.255l-.142-.227q-.035-.141-.106-.255-.107-.227-.213-.482l-.212-.51v-.057zM182.503 7.19l-1.146.058-.286.513-.215.513-.287.512c-.071.171-.155.342-.25.513l-.144.284-.143.285c-.072.095-.132.19-.18.286l-.142.284c-.096.19-.203.38-.323.57-.095.19-.203.379-.322.569l-.287.456-.215.455-.286.456-.215.4-6.376 11.591c-.095.19-.215.36-.358.513-.12.152-.262.294-.43.427a2.123 2.123 0 0 1-.537.314 1.31 1.31 0 0 1-.609.085l-1.326.085v.855h.36a.381.381 0 0 1 .142-.029h.86l.645-.057h3.904l.716.057h.968c.071 0 .143.01.215.03h.429v-.856l-1.325-.029a34.314 34.314 0 0 1-.753-.056 2.793 2.793 0 0 1-.536-.143.57.57 0 0 1-.323-.2.73.73 0 0 1-.107-.397c0-.057.011-.134.035-.229.024-.114.06-.237.108-.37.047-.152.108-.304.18-.456l.214-.455v-.03c0-.018.012-.037.035-.056.024-.02.037-.038.037-.057v-.085a.344.344 0 0 1 .071-.086l.072-.17a.672.672 0 0 1 .108-.172c.024-.038.047-.085.071-.142l.071-.17a.94.94 0 0 1 .073-.143.986.986 0 0 1 .071-.143c0-.038.012-.076.036-.114a.997.997 0 0 0 .072-.142l1.003-1.908h10.315l1.649 3.332v.029h.035v.113a.118.118 0 0 0 .072.03v.084h.036v.029l.214.456c.072.133.144.275.215.427.048.133.084.256.108.37.048.095.072.19.072.285 0 .076-.048.152-.144.228a.668.668 0 0 1-.322.17 1.796 1.796 0 0 1-.465.115c-.167.019-.347.019-.538 0l-1.683.085v.855h.466c.095-.019.178-.029.25-.029h1.11l.789-.057h4.548l.789.057h.966c.072 0 .144.01.215.03h.395v-.856l-1.219-.029a1.808 1.808 0 0 1-.465-.113 3.385 3.385 0 0 1-.358-.2 3.881 3.881 0 0 0-.323-.284 6.326 6.326 0 0 1-.286-.371 1.83 1.83 0 0 1-.144-.2l-.142-.227-.144-.228a3.061 3.061 0 0 0-.144-.257 3.138 3.138 0 0 0-.142-.256 3.06 3.06 0 0 0-.144-.256l-.071-.114-.073-.17-.07-.115-.072-.17-8.669-16.179zm-1.467 3.788l4.513 8.489h-9.062z"/></svg>